<?xml version="1.0" encoding="UTF-8"?>
<svg version="1.1" viewBox="0 0 2048 1020" width="530" height="264" xmlns="http://www.w3.org/2000/svg">
<path transform="translate(1787,502)" d="m0 0 9 2 7 6 2 5v10l-8 16-10 17-10 18-13 22-17 28-12 20-11 17-20 30-12 17-10 14-14 19-21 28-5 6-2-1 7-16 17-38 9-22 13-27 11-23 8-16 16-31 13-23 13-24 8-14 1-3-9 2-77 10-54 8-38 7-52 10-63 14-42 11-51 14-50 16-35 12-31 12-31 13-23 10-35 16-16 8-24 13-24 14-19 12-22 15-18 13-4 3v2l11 9 28 28 9 11 7 10 9 15 7 15 4 16 1 14-2 13-5 12-8 11-7 7-13 9-11 5-20 6-12 2-14 1h-12l-19-2-15-4-16-7-11-7-11-10-9-14-4-11-1-6v-18l4-17 7-16 8-14 10-14 11-13 12-13 15-15 11-9-11-9-14-10-23-16-28-17-24-14-27-14-21-11-28-13-37-16-31-12-48-17-53-17-46-13-42-11-58-14-66-13-63-11-62-9-59-7-4-1 16 29 12 22 12 21 14 25 13 23 15 28 10 17 14 25 8 14-1 2-10-16-9-16-9-15-17-29-16-27-14-24-11-19-13-22-15-26-6-10-1-8h11l58 6 55 7 63 10 75 14 43 9 57 14 62 17 63 20 34 12 41 16 26 11 33 15 32 16 19 10 26 15 23 14 15 10 18 13 11 8 4 1 5-4 20-15 15-11 26-17 23-14 24-13 12-7 23-11 24-12 33-15 27-11 40-15 31-11 57-18 43-12 41-11 64-15 63-13 63-11 70-10 51-6zm-765 282-11 9-12 11-8 7-9 9-9 11-11 14-9 16-5 12-2 10 1 14 4 10 7 9 8 7 12 6 12 4 17 3h30l18-4 13-5 11-7 9-9 4-8 2-7v-17l-4-15-8-16-10-14-14-17-26-26-8-7z" fill="#292929"/>
<path transform="translate(1787,502)" d="m0 0 9 2 7 6 2 5v10l-8 16-10 17-10 18-13 22-17 28-12 20-11 17-20 30-12 17-10 14-14 19-21 28-5 6-2-1 7-16 17-38 9-22 13-27 11-23 8-16 16-31 13-23 13-24 8-14 1-3-9 2-77 10-54 8-38 7-52 10-63 14-42 11-44 12h-2l1-3 42-12 33-9 23-5 10-3 10-2 42-9 26-5 23-5 12-2 26-4 11-2 91-13 15-2h16l2 5-4 12-7 11-6 11-9 16-4 8-10 18-8 17-5 8-12 25-6 12-6 13-6 14-8 17-5 9-2 8-2 4 1 3 9-10 7-12 5-4 3-6h2l2-4 7-11 9-13 11-16 1-3h2l2-5 7-10 3-6 6-9 5-9 4-5 6-11 15-25 6-11 5-7 8-17 9-14 7-12 2-6-1-9-4-5-2-1h-15l-35 4h-13v2l-54 7-8 2-19 2-25 4-29 6-13 2-13 3-23 4-8 2-15 3-16 4-9 2-13 4-12 2-7 2-23 5-13 4-27 8-10 2-18 5-30 10-23 7-15 5-8 4-27 9-23 8-4 2h-3v2l-19 7-17 8-15 7-16 7-17 9-17 8-16 9-12 6-15 9-13 8-11 7-11 8-11 7-11 8-1 2-7 4-5 2v2l-6 4-5 4-4-1-9-4-11-8-8-6-8-5v-2l-5-1-13-8-6-4-5-4-10-5-12-8-30-15-15-8-5-3-8-3-15-8-9-4-23-10-32-12-12-5-18-7-14-5-48-16-8-3-22-5-5-1-7-3-1 1 4 2 6 1v2h3v2h7l7 3 6 2 16 5 9 2 11 5 31 11 17 7 16 6 19 8 10 5 13 5 20 9 14 8 23 10 3 3 16 9 16 8 8 5 9 5 2 1v2l5 2 16 11 14 8 4 4 10 7 3 3 2 1v2l4 1v2h2l1 4-4-2-18-13-14-10-18-12-23-14-24-14-27-14-21-11-28-13-37-16-31-12-48-17-53-17-46-13-42-11-58-14-66-13-63-11-62-9-59-7-4-1 16 29 12 22 12 21 14 25 13 23 15 28 10 17 14 25 8 14-1 2-10-16-9-16-9-15-17-29-16-27-14-24-11-19-13-22-15-26-6-10-1-8h11l58 6 55 7 63 10 75 14 43 9 57 14 62 17 63 20 34 12 41 16 26 11 33 15 32 16 19 10 26 15 23 14 15 10 18 13 11 8 4 1 5-4 20-15 15-11 26-17 23-14 24-13 12-7 23-11 24-12 33-15 27-11 40-15 31-11 57-18 43-12 41-11 64-15 63-13 63-11 70-10 51-6z" fill="#676767"/>
<path transform="translate(464,364)" d="m0 0h19l28 5 44 10 45 12 65 20 43 15 30 11 25 10 35 16 26 12 29 15 22 12 28 17 33 22 18 13 16 13 6 7h-4l-22-15-20-13-15-9-16-9-38-19-16-7-13-6-38-15-19-7-43-14-32-10-53-14-57-13-57-11-54-10-18-6-15-8-16-12 1-3 18-6z" fill="#292929"/>
<path transform="translate(1557,364)" d="m0 0h18l23 5 10 3v4l-10 9-16 9-16 6-23 5-69 13-44 9-38 9-47 12-54 17-41 14-42 17-30 13-38 19-27 16-21 13-33 22-1-2 11-9 9-8 17-13 18-13 19-12 24-15 29-16 27-14 33-16 25-11 40-16 47-17 30-10 53-16 44-12 40-9 26-5z" fill="#292929"/>
<path transform="translate(429,443)" d="m0 0h10l43 8 37 9 39 10 41 12 49 16 25 9 51 20 35 16 36 17 30 16 23 13 38 24 19 14 13 10 14 11 10 9 4 4h-3l-15-12-12-8-25-16-15-9-26-14-32-16-30-13-36-14-36-12-48-15-29-8-73-18-44-9-65-12-21-4-15-6-19-11-11-9v-2l16-5z" fill="#292929"/>
<path transform="translate(1599,443)" d="m0 0h9l25 5 14 4 1 2-5 5-11 8-16 9-18 6-60 11-52 10-71 17-34 9-49 15-36 12-24 9-46 19-20 9-36 19-28 17-16 10-20 14-6 5-2-1 7-7 8-7 16-13 19-13 18-12 16-10 20-12 27-15 23-12 34-16 28-12 40-16 46-17 40-13 42-12 46-12 49-11z" fill="#292929"/>
<path transform="translate(429,443)" d="m0 0h10l43 8 37 9 39 10 41 12 49 16 25 9 51 20 35 16 36 17 30 16 23 13 38 24 19 14 13 10 14 11 10 9 4 4h-3l-15-12-12-8-25-16-15-9-26-14-32-16-30-13-36-14-36-12-48-15-29-8-73-18-44-9-65-12-21-4-15-6-19-11-11-9v-2l16-5zm-1 4-17 3-10 3-1 4 3 3 13 8 14 7 16 4 37 6 18 4 8 2 23 4 26 5 27 7 22 5 17 4 28 7 17 6 16 4 41 14 22 7 12 4 9 4h3v2l17 6 8 4 8 3h3l1 3 6 1 10 6 1 2 5 1 8 4 7 2 1-2-8-5h-2v-2l-14-7-14-8-7-3-1-2-27-12-19-9-8-4-18-8-16-8-21-7-13-5-12-5-8-3-8-2-8-3-10-3-12-5-15-4-18-6-13-3-14-5-68-17-18-4-12-3-19-3z" fill="#666"/>
<path transform="translate(464,364)" d="m0 0h19l28 5 44 10 45 12 65 20 43 15 30 11 25 10 35 16 26 12 29 15 22 12 28 17 33 22 18 13 16 13 6 7h-4l-22-15-20-13-15-9-16-9-38-19-16-7-13-6-38-15-19-7-43-14-32-10-53-14-57-13-57-11-54-10-18-6-15-8-16-12 1-3 18-6zm4 4-16 2-14 4 1 4 1 3 15 8 16 6 7 1v2l10 2 14 3 16 2 7 2 15 2 16 3 21 5 13 2 1 1 15 2 19 5 11 2 19 5 18 5 18 4 16 5 20 7 21 7 17 5 20 8 23 8 18 8 3 3 7 1 26 11 4 2 1 2 24 10 2-1-5-4h-2v-2l-11-6-7-4h-2l-1-2-5-3-6-3-11-6-7-3-13-7-4-2h-3v-2l-11-5-5-2-12-6-12-5-11-5-6-2-18-7-25-10-7-2-17-6-8-3-24-8-10-3-29-9-22-7-21-5-6-2-35-9-7-2-22-5-26-4z" fill="#666"/>
<path transform="translate(1599,443)" d="m0 0h9l25 5 14 4 1 2-5 5-11 8-16 9-18 6-60 11-52 10-71 17-34 9-49 15-11 3 1-3 12-5 16-5 18-5 19-6 29-8 22-5 25-6 32-7 38-7 22-5 14-3 13-2 24-4 9-2v-2l12-6 9-6 4-4 1-2-18-4-6-1h-21l-14 2-9 2-9 1-15 4-19 5-14 3-16 4-15 4-19 6-10 3-11 3-12 3-27 9-18 7-19 6-12 4-12 6-13 4-9 4-11 5-12 6-10 3-32 16-10 4-19 10-8 5-10 5-6 4h-2v2l-3 3 17-7h2v2l-17 8-19 10-25 14-26 16-19 13-13 10-2-1 7-7 8-7 16-13 19-13 18-12 16-10 20-12 27-15 23-12 34-16 28-12 40-16 46-17 40-13 42-12 46-12 49-11z" fill="#6A6A6A"/>
<path transform="translate(1557,364)" d="m0 0h18l23 5 10 3v4l-10 9-16 9-16 6-23 5-69 13-44 9-38 9-47 12-54 17-21 7h-2l2-4 30-10 42-13 21-6 21-5 29-8 24-5 36-7 44-9 24-4 13-2 14-3 24-12 8-5-1-5-11-3-9-2h-12l-6-1-13 3-26 4-11 3-17 3-10 3-17 5-14 4-27 7-21 7-18 5-25 8-18 7-14 5-14 4-17 7-9 4-12 4-9 4-11 5-17 8-16 7-13 7-11 6-8 3-8 5-5 2-3 3-11 5-12 7-6 5v2l8-4 4-1 2 2-22 11-27 16-21 13-33 22-1-2 11-9 9-8 17-13 18-13 19-12 24-15 29-16 27-14 33-16 25-11 40-16 47-17 30-10 53-16 44-12 40-9 26-5z" fill="#6B6B6B"/>
<path transform="translate(1740,537)" d="m0 0h16l2 5-4 12-7 11-6 11-9 16-4 8-10 18-8 17-5 8-12 25-6 12-6 13-6 14-7 14-3 1 1-5 8-19 19-40 19-38 24-44 10-18 9-16 1-3-9 2-77 10-54 8-38 7-52 10-63 14-42 11-44 12h-2l1-3 42-12 33-9 23-5 10-3 10-2 42-9 26-5 23-5 12-2 26-4 11-2 91-13z" fill="#656565"/>
<path transform="translate(411,447)" d="m0 0 4 1-1 2-13 4v5l6 2 9 6 14 7 16 4 37 6 18 4 8 2 23 4 26 5 27 7 22 5 17 4 28 7 17 6 16 4 41 14 22 7 12 4 9 4 3 1v2l6 1 12 5 18 7 1 2 6 1 11 7v2l-6-2-32-14-36-14-36-12-48-15-29-8-73-18-44-9-65-12-21-4-15-6-19-11-11-9v-2l16-5z" fill="#686868"/>
<path transform="translate(1e3 767)" d="m0 0v3l-4 6-6 5h-2v2l-6 5-2 3h-2l-2 4-5 4-2 4-7 6-5 8h-2l-2 5-5 5-15 25-5 11-3 12v25l4 13 7 9v2l4 2 16 14 18 8 17 4 11 1h32l26-6 13-6 12-7 11-11 1-2h2l1-4 5-11 1-3v-26l-2-10-6-14-7-11-4-7-8-11v-2l-3-1-4-5v-2h-2v-2l-3-1-6-8-2-1v-2l-4-2v-2l-3-1-5-5-9-7-6-8v-3h2l5 5 12 11 23 23 9 11 7 10 9 15 7 15 4 16 1 14-2 13-5 12-8 11-7 7-13 9-11 5-20 6-12 2-14 1h-12l-19-2-15-4-16-7-11-7-11-10-9-14-4-11-1-6v-18l4-17 7-16 8-14 10-14 11-13 12-13 15-15 11-9z" fill="#656565"/>
<path transform="translate(1022,782)" d="m0 0 5 1 11 9 10 10v2l4 2 4 5 3 2v2l4 2 6 8 9 11 8 13 5 8 4 13 1 8v21l-5 12-7 8-8 7-16 8-6 2-14 3h-37l-19-3-13-5-10-7-8-7-6-12-2-6-2-19 4-13 3-4 2-5 4-8 8-12 10-13 11-12 5-5 3-1 2-4 7-6 11-9zm0 2-11 9-12 11-8 7-9 9-9 11-11 14-9 16-5 12-2 10 1 14 4 10 7 9 8 7 12 6 12 4 17 3h30l18-4 13-5 11-7 9-9 4-8 2-7v-17l-4-15-8-16-10-14-14-17-26-26-8-7z" fill="#666"/>
<path transform="translate(1324,524)" d="m0 0 3 1-4 4-11 5-12 6-10 3-32 16-10 4-19 10-8 5-10 5-6 4h-2v2l-3 3 17-7h2v2l-17 8-19 10-25 14-26 16-19 13-13 10-2-1 7-7 8-7 16-13 19-13 18-12 16-10 20-12 27-15 23-12 34-16 28-12z" fill="#707070"/>
<path transform="translate(249,517)" d="m0 0h11l58 6-2 2h-15l4 2 6 1v1l-16-1-34-4-4-1 16 29 12 22 12 21 14 25 13 23 15 28 10 17 14 25 8 14-1 2-10-16-9-16-9-15-17-29-16-27-14-24-11-19-13-22-15-26-6-10z" fill="#FDFDFD"/>
<path transform="translate(1365,613)" d="m0 0m-4 1 6 1-3 2-41 13-38 13-31 12-31 13-23 10-35 16-16 8-24 13-24 14-19 12-22 15-18 13-5 3 2-5 18-14h3v-2l11-7 10-6 18-12 14-8 13-8 16-8 12-7 16-8 19-8 12-6 5-3 16-6 13-5 13-6 11-4 17-6 12-5 19-7 20-6 21-7z" fill="#686868"/>
<path transform="translate(1628,465)" d="m0 0m-1 1m-1 1m-3 1h3l-2 4-13 6-13 4-60 11-52 10-71 17-34 9-49 15-11 3 1-3 12-5 16-5 18-5 19-6 29-8 22-5 25-6 32-7 38-7 22-5 14-3 13-2 24-4 9-2v-2z" fill="#686868"/>
<path transform="translate(1569,395)" d="m0 0m-1 1m-5 1h5v2l-10 3-105 20-45 10-48 12-31 9-41 13-18 6h-2l2-4 30-10 42-13 21-6 21-5 29-8 24-5 36-7 44-9 24-4 13-2z" fill="#676767"/>
<path transform="translate(1777,571)" d="m0 0 1 3-14 24-17 28-12 20-11 17-20 30-12 17-10 14-14 19-21 28-5 6-2-1 7-16 17-38 3-1-1 4-4 8-2 8-2 4 1 3 9-10 7-12 5-4 3-6h2l2-4 7-11 9-13 11-16 1-3h2l2-5 7-10 3-6 6-9 5-9 4-5 6-11 15-25 6-11z" fill="#6A6A6A"/>
<path transform="translate(1167,501)" d="m0 0 2 1-4 5-6 3-6 4-5 4v2l8-4 4-1 2 2-22 11-27 16-21 13-33 22-1-2 11-9 9-8 17-13 18-13 19-12 24-15z" fill="#707070"/>
<path transform="translate(781,642)" d="m0 0 5 1 20 8 12 6 13 5 20 9 14 8 23 10 3 3 16 9 16 8 8 5 9 5 2 1v2l5 2 16 11 14 8 4 4 10 7 3 3 2 1v2l4 1v2h2l1 4-4-2-18-13-14-10-18-12-23-14-24-14-27-14-21-11-28-13-37-16-8-4z" fill="#747474"/>
<path transform="translate(1756,540)" d="m0 0h2l-2 9-4 8-5 8-6 11-9 16-4 8-10 18-8 17-5 8-12 25-6 12-6 13-6 14-7 14-3 1 1-5 8-19 19-40 19-38 24-44 10-18z" fill="#606060"/>
<path transform="translate(1035,772)" d="m0 0h2l5 5 12 11 23 23 9 11 7 10 9 15 7 15 4 16 1 14-2 13-5 12-2-1 1-5 3-8v-26l-2-10-6-14-7-11-4-7-8-11v-2l-3-1-4-5v-2h-2v-2l-3-1-6-8-2-1v-2l-4-2v-2l-3-1-5-5-9-7-6-8z" fill="#606060"/>
<path transform="translate(1538,570)" d="m0 0m-3 0 6 2v1l-52 11-38 9-74 20h-2l1-3 42-12 33-9 23-5 10-3 10-2 28-6z" fill="#6C6C6C"/>
<path transform="translate(1022,782)" d="m0 0 5 1 11 9 10 10v2l4 2 4 5 3 2v2l4 2 6 8 9 11 8 13 5 8 4 13 1 8v14l-2 1-1-14-4-15-8-16-10-14-14-17-25-25-8-7-4 1z" fill="#6C6C6C"/>
<path transform="translate(249,517)" d="m0 0h11l58 6-2 2h-15l4 2 6 1v1l-16-1-34-4-4-1 2 4-1 4h-3l-2-5-3-1z" fill="#FDFDFD"/>
<path transform="translate(1365,613)" d="m0 0m-4 1 6 1-3 2-41 13-38 13-31 12-17 7h-2l2-4 11-5 11-4 17-6 12-5 19-7 20-6 21-7z" fill="#676767"/>
<path transform="translate(1e3 767)" d="m0 0v3l-4 6-6 5h-2v2l-6 5-2 3h-2l-2 4-5 4-2 4-7 6-5 8h-2l-2 5-5 5-15 25-4 8-3 1 3-9 9-17 9-13 8-10 9-10 7-8 17-17 11-9z" fill="#626262"/>
<path transform="translate(900,698)" d="m0 0 16 7 15 9 9 5 2 1v2l5 2 16 11 14 8 4 4 10 7 3 3 2 1v2l4 1v2h2l1 4-4-2-18-13-14-10-18-12-23-14-24-14-2-1z" fill="#666"/>
<path transform="translate(910,533)" d="m0 0 6 2 9 2-1-3 5 2 18 13 12 9 11 9 6 7h-4l-22-15-20-13-20-12z" fill="#F8F8F8"/>
<path transform="translate(1381,435)" d="m0 0m-5 1h5l-1 3-38 10-48 15-24 8h-2l2-4 30-10 42-13 21-6z" fill="#727272"/>
<path transform="translate(886,614)" d="m0 0 7 4 19 14 16 13 11 9 5 4 2 4-4-2-17-13-15-10-19-12-10-6 4-1h1z" fill="#F9F9F9"/>
<path transform="translate(1666,721)" d="m0 0 1 3-5 9-2 8-2 4 1 3 9-9 1 3-13 17-9 12-5 6-2-1 7-16 17-38z" fill="#626262"/>
<path transform="translate(1020,783)" d="m0 0m-2 1h2l-2 4-11 10-11 9-13 13-9 11-11 14-7 12-2-1 1-4 9-14 10-13 11-12 5-5 3-1 2-4 7-6 11-9z" fill="#626262"/>
<path transform="translate(1457,588)" d="m0 0m-6 1h6v2l-21 6-59 16h-2l1-3 42-12z" fill="#696969"/>
<path transform="translate(592,577)" d="m0 0 6 1 3 1 11 2 28 7 5 3 4 1-3 1-1 2-5-3-2 1-7-2-13-3-18-5-7-3z" fill="#292929"/>
<path transform="translate(1143,620)" d="m0 0 2 1-3 3-1 3 2 1-30 20-13 10-2-1 7-7 8-7 16-13z" fill="#FEFEFE"/>
<path transform="translate(1318,545)" d="m0 0m-3 1 5 1-4 2-29 10-32 13h-2l2-4 13-5 8-4 8-3 11-4 8-3 9-2z" fill="#696969"/>
<path transform="translate(1096,546)" d="m0 0 2 1-3 3 8-1-3 3-17 11-24 16-1-2 11-9 9-8 17-13z" fill="#FEFEFE"/>
<path transform="translate(1802,514)" d="m0 0 3 1v10l-8 16-10 17-8 14-2-1 1-5 8-15 7-11 7-12 2-6z" fill="#686868"/>
<path transform="translate(1092,730)" d="m0 0m-1 1m-1 1m-1 1m-2 1h2l-2 4-11 7-16 11-18 13-5 3 2-5 18-14h3v-2l11-7 10-6z" fill="#646464"/>
<path transform="translate(930,860)" d="m0 0 1 3-3 12v25l3 10-1 4-2-2-3-9-1-6v-18l4-17z" fill="#808080"/>
<path transform="translate(1777,571)" d="m0 0 1 3-14 24-10 16-2-1 2-5 11-19 6-11z" fill="#6D6D6D"/>
<path transform="translate(1366,530)" d="m0 0m-5 1h5l-1 3-36 11-8 2 1-3 12-5 16-5z" fill="#6A6A6A"/>
<path transform="translate(1314,454)" d="m0 0m-3 1h3l-1 3-37 12-8 2 2-4 30-10z" fill="#747474"/>
<path transform="translate(832,493)" d="m0 0 9 3 23 10 3 2v2l6 1 2 4-6-2-24-11-13-6-3-2z" fill="#808080"/>
<path transform="translate(788,476)" d="m0 0 9 2 25 10 7 4v2l-10-3-30-12z" fill="#7A7A7A"/>
<path transform="translate(781,642)" d="m0 0 5 1 20 8 12 6 1 3-9-3-28-12z" fill="#767676"/>
<path transform="translate(1270,645)" d="m0 0m-3 1 5 1-3 2-32 13h-2l2-4 11-5 11-4z" fill="#717171"/>
<path transform="translate(1365,613)" d="m0 0m-4 1 6 1-3 2-35 11h-2l2-4 16-5 11-4z" fill="#6F6F6F"/>
<path transform="translate(1347,444)" d="m0 0m-5 1h5v2l-27 9-6 1 2-4 19-6z" fill="#6D6D6D"/>
<path transform="translate(1687,713)" d="m0 0 1 3-14 19-5 5-1-2 7-12 5-4 3-6z" fill="#686868"/>
<path transform="translate(1250,570)" d="m0 0m-3 1 5 1-4 3-24 10h-2l1-3 12-6z" fill="#757575"/>
<path transform="translate(1115,717)" d="m0 0m-2 1 4 2-18 10-10 6 2-4 6-5z" fill="#6D6D6D"/>
<path transform="translate(1404,602)" d="m0 0m-3 1h3l-1 3-26 7h-2l1-3 21-6z" fill="#757575"/>
<path transform="translate(1253,475)" d="m0 0 3 2-28 11h-2l2-4 7-2 6-3z" fill="#828282"/>
<path transform="translate(1652,761)" d="m0 0 2 1-11 14h-3l5-12 2 1z" fill="#FEFEFE"/>
<path transform="translate(251,520)" d="m0 0h7l1 2h-2l2 5-1 4h-3l-2-5-3-1z" fill="#5B5B5B"/>
<path transform="translate(954,856)" d="m0 0 1 3-5 11-2 6-2-2 1-7 3-4 2-5z" fill="#7B7B7B"/>
<path transform="translate(1698,697)" d="m0 0 1 3-7 10-4 4-1-2 7-11z" fill="#717171"/>
<path transform="translate(811,579)" d="m0 0 7 3 8 5v2l-6-2-10-5z" fill="#717171"/>
<path transform="translate(1192,499)" d="m0 0m-2 1 4 2-19 8 2-4z" fill="#838383"/>
<path transform="translate(1419,598)" d="m0 0m-2 0 2 1-1 3-14 3 2-4z" fill="#6A6A6A"/>
<path transform="translate(1269,562)" d="m0 0m-1 1m-4 1h4l-1 3-12 5h-2l2-4z" fill="#6B6B6B"/>
<path transform="translate(1628,465)" d="m0 0m-1 1m-1 1m-3 1h3l-2 4-10 5h-2l1-3h2v-2z" fill="#676767"/>
<path transform="translate(946,874)" d="m0 0h1v9l-1 10-2-1-1-12 2-5z" fill="#5C5C5C"/>
<path transform="translate(930,860)" d="m0 0 1 3-3 12-3 3 1-9 3-8z" fill="#797979"/>
<path transform="translate(925,898)" d="m0 0 1 2h2l3 10-1 4-2-2-3-9z" fill="#858585"/>
<path transform="translate(1752,613)" d="m0 0 1 3-6 10-2-1 1-4 4-6z" fill="#686868"/>
<path transform="translate(832,493)" d="m0 0 9 3 3 2v2l-5-1-10-4z" fill="#8A8A8A"/>
<path transform="translate(1404,602)" d="m0 0m-3 1h3l-1 3-13 3 1-3z" fill="#737373"/>
<path transform="translate(537,565)" d="m0 0h11l2 4-8-1-5-2z" fill="#292929"/>
<path transform="translate(1160,514)" d="m0 0m-1 1 3 2-10 5h-2l2-4z" fill="#8E8E8E"/>
<path transform="translate(1233,577)" d="m0 0m-1 1m-3 1h3l-1 3-9 3 1-3z" fill="#6B6B6B"/>
<path transform="translate(304,522)" d="m0 0 14 1-2 2h-10l-2-1z" fill="#FEFEFE"/>
<path transform="translate(1337,622)" d="m0 0m-4 1h4v2l-10 3 2-4z" fill="#6C6C6C"/>
<path transform="translate(1204,494)" d="m0 0m-2 1 4 2-10 4h-2l1-3z" fill="#878787"/>
<path transform="translate(1314,454)" d="m0 0m-3 1h3l-1 3-9 2 1-3z" fill="#737373"/>
<path transform="translate(1169,510)" d="m0 0h5l-4 3-6 3h-2l1-3z" fill="#909090"/>
<path transform="translate(371,729)" d="m0 0 2 4-2-1z" fill="#FEFEFE"/>
<path transform="translate(373,733)" d="m0 0 2 1-1 2z" fill="#FEFEFE"/>
<path transform="translate(1096,658)" d="m0 0 2 1h-3z" fill="#FEFEFE"/>
<path transform="translate(378,741)" d="m0 0" fill="#FEFEFE"/>
<path transform="translate(376,738)" d="m0 0" fill="#FEFEFE"/>
<path transform="translate(375,736)" d="m0 0" fill="#FEFEFE"/>
<path transform="translate(1056,579)" d="m0 0 2 1z" fill="#FEFEFE"/>
<path transform="translate(379,743)" d="m0 0" fill="#FEFEFE"/>
<path transform="translate(377,740)" d="m0 0" fill="#FEFEFE"/>
<path transform="translate(1052,582)" d="m0 0" fill="#FEFEFE"/>
<path transform="translate(1054,581)" d="m0 0" fill="#FEFEFE"/>
<path transform="translate(1055,580)" d="m0 0" fill="#FEFEFE"/>
</svg>
