<?xml version="1.0" encoding="UTF-8"?>
<svg version="1.1" viewBox="0 0 2000 2000" width="500" height="500" xmlns="http://www.w3.org/2000/svg">
<path transform="translate(0)" d="m0 0h2e3v2e3h-2e3z" fill="#FDFDFD"/>
<path transform="translate(963,411)" d="m0 0h58l37 3 28 4 37 7 36 9 36 12 28 11 34 16 24 13 20 12 21 14 18 13 13 10 13 11 11 9 8 8 8 7 23 23 7 8 10 11 11 14 12 15 14 20 10 15 13 21 12 21 15 29 17 39 13 36 9 28 13 52 7 37 4 31h-27l-16-1-7-40-6-27-12-46-10-29-13-34-18-39-15-28-12-20-18-27-14-19-11-14-13-15-11-12-9-10-12-12-8-7-12-11-11-9-14-11-18-13-20-13-29-17-30-15-26-11-40-14-31-8-40-8-31-4-25-2h-62l-29 2-29 4-40 8-35 9-39 14-21 9-33 16-24 14-30 20-12 9-14 11-13 11-11 10-8 7-22 22-7 8-9 10-11 14-10 12-11 16-7 10-14 22-9 15-17 32-18 39-18 50-7 24-11 44-6 31-3 19-1 3-21 1-21-1 1-13 7-41 9-39 9-34 11-33 10-26 15-34 9-19 9-16 6-12 12-19 10-16 11-15 10-14 13-16 9-11 9-10 7-8 37-37 11-9 14-12 20-15 15-11 19-12 20-12 26-14 30-14 31-12 30-10 26-7 50-10 28-4 21-2z" fill="#363637"/>
<path transform="translate(451,1047)" d="m0 0h19l14 3 16 8 7 6 9 13 7 16 6 21 10 42 8 35 6 21 10 25 7 16 10 19 8 15 11 24 5 15 2 10v21l-4 13-7 11-6 7-14 11-15 8-23 9-5 2h-4l-11-21-8-13-9-16-12-23-8-16-14-30-12-30-10-26-17-52-10-40-9-42-5-30 1-6 11-10 14-9 12-5z" fill="#353536"/>
<path transform="translate(1514,1047)" d="m0 0h18l14 3 14 7 12 9 7 7 1 6-6 37-13 57-10 35-12 36-10 26-14 34-19 40-12 23-11 20-8 13-7 12-3 6-2 1-29-12-12-6-11-8-10-9-8-11-4-9-2-9v-14l3-16 5-15 14-29 17-33 12-29 7-21 11-47 12-50 6-17 6-11 7-9 8-7 14-7z" fill="#353536"/>
<path transform="translate(353,1050)" d="m0 0h13l12 6 7 8 4 8 3 13 8 45 9 41 14 47 10 30 17 44 18 40 21 42 14 24 12 21 3 9v11l-4 11-6 7-8 5-4 1h-8l-11-4-7-5-9-12-10-17-8-13-16-28-10-19-8-16-11-24-11-26-7-18-17-51-11-41-9-39-9-57-1-9v-9l3-10 6-9 8-5z" fill="#363637"/>
<path transform="translate(1618,1050)" d="m0 0h13l10 6 7 10 2 6v17l-10 61-8 36-15 55-9 26-14 38-13 29-7 16-9 17-8 16-14 25-13 22-11 17-9 10-9 5-4 1h-9l-10-4-7-7-4-8-1-3v-15l5-12 13-22 11-19 10-20 10-19 13-29 9-21 17-45 16-51 7-27 8-38 9-49 4-9 7-8 9-6z" fill="#353536"/>
<path transform="translate(1427,996)" d="m0 0h12l4 5v11l-8 16-14 24-17 28-26 39-12 16-11 14-4 5-3-1 5-11 10-24 11-24 9-19 10-19 11-19 6-12 3-5-13 1-19 3-47 6-27 5-31 6-48 12-29 8-27 8-35 12-29 12-25 11-21 10-27 16-33 22 2 4 10 9 10 11 10 13 8 16 2 9v11l-2 8-6 10-9 8-12 6-12 3-7 1h-18l-14-3-14-7-9-8-6-10-2-5v-15l2-9 4-10 7-11 10-13 17-17 3-2-2-4-33-22-20-12-27-14-21-10-34-14-36-13-32-10-52-14-27-6-63-12-39-6-8-1 2-5 22 2 49 8 47 9 58 14 55 16 33 11 27 11 24 11 16 8 27 14 21 13 13 9 11 7 5-2 18-13 15-10 15-9 23-13 35-17 32-13 33-12 37-12 41-11 49-12 40-8 51-8 32-4z" fill="#373738"/>
<path transform="translate(328,1155)" d="m0 0 4 2 12 49 7 26 13 40 10 27 16 38 21 43 2 7-16 11-16 10-6 2-10-1-8-6-11-16-15-26-11-21-13-28-11-27-13-35-17-52-4-15v-13l4-6 5-4 5-2 9-1z" fill="#363637"/>
<path transform="translate(1652,1156)" d="m0 0h18l29 1 12 2 6 4 5 10-1 11-7 25-12 36-11 31-11 27-11 25-15 31-16 27-7 11-9 10-8 3-9-1-8-4-16-11-10-7 1-5 14-29 10-21 13-31 7-18 12-37 5-15 8-30z" fill="#353536"/>
<path transform="translate(989,1161)" d="m0 0 4 1 8 7 14 14 10 14 5 10 3 12-1 9-5 8-8 6-10 4-9 2h-20l-18-5-8-6-6-10-1-4v-8l5-13 10-14 9-10 10-10z" fill="#FEFEFE"/>
<path transform="translate(1322,961)" d="m0 0h10l10 3 10 2-1 4-8 7-11 6-14 4-53 10-52 12-31 9-40 13-34 14-25 12-19 11-7 2-4 5-11 7-4 4h-3l1-3 15-10 10-9 10-7 14-9 15-9 34-18 30-13 40-15 38-12 44-12z" fill="#363637"/>
<path transform="translate(646,961)" d="m0 0h8l38 8 34 9 36 11 27 9 29 12 33 15 16 8 15 8 14 9 17 11 5 5 28 20 1 4-6-4-24-18-19-10-32-15-18-8-31-11-51-15-56-13-60-12-10-4-10-7-5-5 11-4z" fill="#383839"/>
<path transform="translate(1299,916)" d="m0 0h15l12 3 4 2-2 4-9 7-14 6-30 6-31 6-48 11-31 9-38 12-26 10-24 10-19 10-20 12-6 2 1-5 23-15 17-10 25-14 26-13 41-16 37-13 34-10 40-10z" fill="#383839"/>
<path transform="translate(665,916)" d="m0 0h17l17 3 33 8 42 12 30 10 33 13 18 8 31 15 16 8 20 12 10 7 4 3-1 2-2-1v2l-5-2-15-8-28-13-31-12-36-12-27-8-41-10-29-6-43-8-13-4-11-7-6-5v-3z" fill="#383839"/>
<path transform="translate(584,1008)" d="m0 0 22 2 49 8 47 9 58 14 55 16 33 11 27 11 24 11 16 8 27 14 21 13 13 9 9 6-3 2-3-1v-2l-4-1-2-1v2h2v5l-4 1-30-20-20-12-27-14-21-10-34-14-36-13-32-10-52-14-27-6-63-12-39-6-8-1z" fill="#3D3D3E"/>
<path transform="translate(828,1062)" d="m0 0 9 2 36 14 26 12 16 8 27 14 21 13 13 9 9 6-3 2-3-1v-2l-4-1-2-1v2h2v5l-4 1-30-20-20-12-27-14-21-10-32-13 3-2 3-3-7-3-4-2-1 2-3-1z" fill="#545355"/>
<path transform="translate(1226,986)" d="m0 0 3 1h-2v2l-13 5-7 3-14 4-5 1-4 2-5 1v2l-9 3-7 4-3 2h-5l-2 4h-2-4v2h-4v2l-4 2h-4v2l-14 7h-2v2l6-4 8-2 1-1 5-2 3 3-34 14-25 12-19 11-7 2-4 5-11 7-4 4h-3l1-3 15-10 10-9 10-7 14-9 15-9 34-18 30-13 40-15z" fill="#575658"/>
<path transform="translate(1332,977)" d="m0 0 8 1-5 4-17 5-53 10-52 12-31 9-19 6-3-1 5-1 3-6 7-2 4-2h11v-2l4-2 11-1v-2l6-2h4l7-1 5-2 11-2 6-2 53-11 20-4 9-1 1-1h5z" fill="#575658"/>
<path transform="translate(649,980)" d="m0 0 9 1 17 3 8 2 20 4 7 1 11 2 9 2 14 4 9 1 8 3 8 1 18 6 13 3v2h6l4 4h-10l-34-10-56-13-60-12z" fill="#535254"/>
<path transform="translate(999,1152)" d="m0 0h2l4 5 8 7 11 12 10 13 8 16 2 9v11l-2-2-3-14-2-5-5-1-1-4v-1l-1-2-4-1-2 2-2-5 1-3h-2v-2h-2l-2-5-4-2v-3l-4-1v-3l-4-2v-2l-4-2-5-5-1-5z" fill="#565557"/>
<path transform="translate(1271,940)" d="m0 0h7l2 3-36 7-48 11-31 9-23 7-4-1v-3l9-4 11-3 4-2 8-1 1-2 18-3 3-2 14-1 3-2 26-6 12-3h14l-1-2z" fill="#575658"/>
<path transform="translate(1278,1037)" d="m0 0 9 1v1l-28 6-34 9-40 11-37 12-23 9-3-1 2-4 7-1h3l2-2 7-2 3-3h9v-3l10-2h2v-2l9-2 5-3 12-3 14-4 15-4 4-2 9-1 3-2 9-1 6 1 1-3 11-2h7l1-2z" fill="#575658"/>
<path transform="translate(859,1030)" d="m0 0 4 1 19 10 14 9 17 11 5 5 28 20 1 4-6-4-24-18-19-10-32-15 2-2-2-2 3-1-9-6z" fill="#3D3D3E"/>
<path transform="translate(544,1007)" d="m0 0h33v1l-25 1-3 1 6 11 15 26 14 25 13 23 5 8 6 11 7 12-1 2-7-10-16-28-13-23-14-25-13-22-7-12z" fill="#575658"/>
<path transform="translate(1413,1020)" d="m0 0h1l-1 7-8 16-12 22-8 15-9 19-6 5 2-6 9-19 10-19 12-22z" fill="#575658"/>
<path transform="translate(1436,1018)" d="m0 0 3 1-2 5-13 23-17 28-6 10-3-1 2-5 4-4 2-6 5-9 2-2 3-8 3-3 2-5 4-4 3-7 2-3h2l1-4z" fill="#575658"/>
<path transform="translate(1413,1017)" d="m0 0 2 1-1 2-14 1-19 3-31 4h-10l3-3 18-3 17-2 2-1 13-1h14z" fill="#585759"/>
<path transform="translate(1129,967)" d="m0 0 4 1-3 1v2l-4 2v3l-17 7-3-1-5 5-10 2-7 2 3-3 27-14z" fill="#565557"/>
<path transform="translate(973,1255)" d="m0 0 12 2 13-1 5-1 9 2-4 2-12 2h-18l-14-3 4-2z" fill="#535254"/>
<path transform="translate(859,1030)" d="m0 0 4 1 19 10 14 9 6 4-2 1-10-5-8-5v2h-2l-2-4-3 3-9-3 2-2-2-2 3-1-9-6z" fill="#565557"/>
<path transform="translate(544,1007)" d="m0 0h33v1l-25 1-3 1 6 11 15 26 4 8h-3l-14-25-13-22z" fill="#565557"/>
<path transform="translate(973,1153)" d="m0 0 2 1-2 5h-4l-1 4h-2l-2 4h-2l-2 4-3 5-5 5h-2l-2 6-6 4 2-5 12-16z" fill="#585759"/>
<path transform="translate(902,994)" d="m0 0 5 2 16 10 12 8v3l-2-1v2l-5-2-2-2v-2l-8-5-4-2-4-4-9-5z" fill="#565557"/>
<path transform="translate(1370,1021)" d="m0 0 8 1-3 2-25 4h-10l3-3 18-3z" fill="#575658"/>
<path transform="translate(649,980)" d="m0 0 9 1 17 3 4 2v2h-9l-20-4z" fill="#565557"/>
<path transform="translate(931,1108)" d="m0 0 5 1 16 9 2 4v3h-2l-2-2-11-7-7-4z" fill="#444445"/>
<path transform="translate(1357,1132)" d="m0 0h2l-1 3 3 3h-3l2 5-9 11-3-1 5-11z" fill="#4F4E50"/>
<path transform="translate(911,1061)" d="m0 0h2l5 5 28 20 1 4-6-4-24-18-6-3z" fill="#585759"/>
<path transform="translate(1404,998)" d="m0 0h8l-3 3-9 2h-11l-4 2h-4v-4z" fill="#585759"/>
<path transform="translate(1066,1060)" d="m0 0m-1 1m-1 1v3l-1 4-6 1-4 5-11 7-4 4h-3l1-3 15-10 10-9z" fill="#585759"/>
<path transform="translate(999,1165)" d="m0 0 6 4 4 4v3l4 1 1 3 4 2 1 5h2v2h2v3l-4-2-8-10-12-12z" fill="#404041"/>
<path transform="translate(679,986)" d="m0 0 16 2 1 3h5v1h-10l-15-3 3-1z" fill="#515052"/>
<path transform="translate(999,1255)" d="m0 0 9 1 4 2-16 3h-6l2-4z" fill="#565557"/>
<path transform="translate(1271,940)" d="m0 0h7l2 3-16 3h-5l2-2-1-2z" fill="#585759"/>
<path transform="translate(1144,1075)" d="m0 0 2 1v2l-21 8-3-1 2-4 7-1h3l2-2 6-1h2z" fill="#585759"/>
<path transform="translate(942,1020)" d="m0 0 4 2 10 8 8 6v2l-5-2-12-9z" fill="#585759"/>
<path transform="translate(875,986)" d="m0 0 5 1 14 7 5 3-1 2-9-5v2l-2-1 1-2-8-2-2-1v-2l-4 1z" fill="#565557"/>
<path transform="translate(1409,1066)" d="m0 0 2 2-10 17-3-1 2-5 4-4 2-6z" fill="#545355"/>
<path transform="translate(937,1198)" d="m0 0h1v9l-2 1 1 11-1 2h-2v7h-1v-15l2-9z" fill="#585759"/>
<path transform="translate(857,1073)" d="m0 0 6 1 8 3 1 4 2 1-4-1-13-5z" fill="#444345"/>
<path transform="translate(944,1114)" d="m0 0 8 4 2 4v3h-2l-2-2-6-4-2-4z" fill="#424143"/>
<path transform="translate(1413,1017)" d="m0 0 2 1-1 2-14 1-8 1-1-3 2-1h14z" fill="#555556"/>
<path transform="translate(969,1245)" d="m0 0 8 1 3 1 20 1v1l-23 1-7-2z" fill="#575658"/>
<path transform="translate(1370,1021)" d="m0 0 8 1-3 2-12 2-3-1 1-3z" fill="#515052"/>
<path transform="translate(1322,961)" d="m0 0h10l10 3v1l-11 1-3-1-5-1z" fill="#575658"/>
<path transform="translate(828,1062)" d="m0 0 9 2 13 5-3 2-7-3-4-2-1 2-3-1z" fill="#585759"/>
<path transform="translate(1286,937)" d="m0 0h11l3 2-14 3h-6l3-2v-2z" fill="#585759"/>
<path transform="translate(909,1096)" d="m0 0 6 2 6 3-1 2h-4l-10-5z" fill="#484749"/>
<path transform="translate(410,1067)" d="m0 0 2 1-6 6v17h-1l-2-15 3-5z" fill="#525153"/>
<path transform="translate(1373 1e3)" d="m0 0h7l-3 3-9 2-7-2v-1z" fill="#585759"/>
<path transform="translate(1581,960)" d="m0 0h1l1 10h-27v-1l25-1z" fill="#585759"/>
<path transform="translate(1370,1124)" d="m0 0 2 3-7 9-2-1 2-5 3-5z" fill="#535254"/>
<path transform="translate(1324,1010)" d="m0 0h6l-2 3-6 2-2 1v-3l-11 1v-1z" fill="#585759"/>
<path transform="translate(1226,986)" d="m0 0 3 1h-2v2l-9 4-4-1 5-4z" fill="#565557"/>
<path transform="translate(604,1111)" d="m0 0 3 1 8 14-1 2-7-10-3-5z" fill="#585759"/>
<path transform="translate(1184,946)" d="m0 0 3 1-4 4-4 2h-3v-4z" fill="#565557"/>
<path transform="translate(919,1104)" d="m0 0 7 1 4 5-4 1-4-3v-2l-3 1-2-2z" fill="#39393A"/>
<path transform="translate(876,988)" d="m0 0 4 1v2l6 1 2 1v2l-6-1-8-3v-2z" fill="#3F3F40"/>
<path transform="translate(1023,1029)" d="m0 0h2l-2 4-8 7h-2l2-4z" fill="#585759"/>
<path transform="translate(1392,1092)" d="m0 0 2 3-6 9-2-1 2-5 2-4h2z" fill="#535254"/>
<path transform="translate(1129,967)" d="m0 0 4 1-3 1v2l-6 1 1 3-3-1v-4z" fill="#4F4E50"/>
<path transform="translate(1278,1037)" d="m0 0 9 1v1l-14 3-3-1 3-3z" fill="#585759"/>
<path transform="translate(1317,962)" d="m0 0h5l-5 4-4 1v-2l-9 1 4-2z" fill="#585759"/>
<path transform="translate(1170,951)" d="m0 0 5 1-4 3-7 1-2-2z" fill="#585759"/>
<path transform="translate(1069,1061)" d="m0 0h3l-1 3-5 3-4-1 5-4z" fill="#434244"/>
<path transform="translate(962,1129)" d="m0 0h7l-1 3 2 1v2l-5-1z" fill="#363637"/>
<path transform="translate(841,1069)" d="m0 0 6 1v3l-5 1z" fill="#464647"/>
</svg>
